Coordinates
version=1
nRows=16
nColumns=63
inDegrees=yes

Units are S.I. units (second, meters, Newtons, ...)
If the header above contains a line with 'inDegrees', this indicates whether rotational values are in degrees (yes) or radians (no).

endheader
time	pelvis_tilt	pelvis_list	pelvis_rotation	pelvis_tx	pelvis_ty	pelvis_tz	hip_flexion_r	hip_adduction_r	hip_rotation_r	knee_angle_r	knee_angle_r_beta	ankle_angle_r	subtalar_angle_r	mtp_angle_r	hip_flexion_l	hip_adduction_l	hip_rotation_l	knee_angle_l	knee_angle_l_beta	ankle_angle_l	subtalar_angle_l	mtp_angle_l	L5_S1_Flex_Ext	L5_S1_Lat_Bending	L5_S1_axial_rotation	L4_L5_Flex_Ext	L4_L5_Lat_Bending	L4_L5_axial_rotation	L3_L4_Flex_Ext	L3_L4_Lat_Bending	L3_L4_axial_rotation	L2_L3_Flex_Ext	L2_L3_Lat_Bending	L2_L3_axial_rotation	L1_L2_Flex_Ext	L1_L2_Lat_Bending	L1_L2_axial_rotation	L1_T12_Flex_Ext	L1_T12_Lat_Bending	L1_T12_axial_rotation	Abs_r3	Abs_r2	Abs_r1	Abs_t1	Abs_t2	neck_flexion	neck_bending	neck_rotation	arm_flex_r	arm_add_r	arm_rot_r	elbow_flex_r	pro_sup_r	wrist_flex_r	wrist_dev_r	arm_flex_l	arm_add_l	arm_rot_l	elbow_flex_l	pro_sup_l	wrist_flex_l	wrist_dev_l
4.525424	-0.421643	-0.881390	83.869493	0.345323	1.002631	0.526076	-5.606617	-1.733803	24.152916	0.815271	0.014229	16.254855	-16.424248	0.000000	-4.423697	-2.470945	11.325502	2.292020	0.040003	26.395616	1.140142	0.000000	-0.300357	-0.242680	2.269385	-0.557793	-0.322764	2.411222	-0.493457	-0.590052	2.411222	-0.343278	-0.590052	1.985712	-0.278912	-0.494873	1.843875	-0.171624	-0.375911	1.702039	-2.145422	-2.745243	12.621638	0.000000	0.000000	4.249249	-0.300756	-1.979045	-12.504887	0.522831	213.559826	-0.733934	37.916579	-60.657234	4.627803	-18.616565	-21.136224	66.654501	47.181893	89.151989	-8.750218	22.520290
4.542373	-0.402537	-0.551439	83.552427	0.345745	1.002482	0.524873	-5.982001	-1.803404	24.546554	0.770089	0.013441	16.286178	-16.367336	0.000000	-4.883219	-2.435918	11.235908	2.272353	0.039660	26.654548	0.929108	0.000000	-0.311165	-0.257690	2.324025	-0.577865	-0.342728	2.469276	-0.511213	-0.626548	2.469276	-0.355631	-0.626548	2.033521	-0.288948	-0.525482	1.888270	-0.177800	-0.399162	1.743018	-2.222623	-2.915045	12.925527	0.000000	0.000000	4.084692	0.103385	-2.628417	-12.530757	0.144526	207.472597	0.479508	37.241247	-58.943416	-2.036516	-19.555945	-21.548389	63.819257	48.121104	89.202183	-6.607935	23.933879
4.559322	-0.419145	-0.258201	83.244876	0.346233	1.002355	0.523668	-6.319973	-1.900149	24.947222	0.719245	0.012553	16.309040	-16.375021	0.000000	-5.313180	-2.362039	11.404429	2.237334	0.039049	26.816129	0.413282	0.000000	-0.317115	-0.276316	2.386002	-0.588915	-0.367500	2.535127	-0.520989	-0.671834	2.535127	-0.362431	-0.671834	2.087751	-0.294473	-0.563463	1.938626	-0.181200	-0.428013	1.789501	-2.265122	-3.125737	13.270225	0.000000	0.000000	3.961318	0.412185	-3.282573	-12.648743	0.320711	206.524982	0.471468	35.007297	-56.696543	-6.290038	-20.300956	-21.841634	61.981018	48.784122	89.219818	-5.308110	25.162316
4.576271	-0.433429	0.017661	82.985358	0.346610	1.002241	0.522552	-6.636912	-1.984403	25.239080	0.672290	0.011734	16.381226	-16.337395	0.000000	-5.708186	-2.296326	11.455771	2.221438	0.038771	27.020566	0.168551	0.000000	-0.322845	-0.291639	2.440724	-0.599556	-0.387880	2.593269	-0.530402	-0.709091	2.593269	-0.368980	-0.709091	2.135633	-0.299794	-0.594710	1.983088	-0.184474	-0.451749	1.830543	-2.306051	-3.299080	13.574575	0.000000	0.000000	3.849824	0.647144	-3.820923	-12.773119	0.491309	205.490197	0.461445	32.682792	-54.170397	-10.398528	-20.845381	-21.932415	60.966374	49.127886	89.217913	-4.461160	26.278194
4.593220	-0.436924	0.263862	82.786406	0.346850	1.002156	0.521568	-6.919844	-2.045560	25.391886	0.621793	0.010852	16.476997	-16.257247	0.000000	-6.053282	-2.246117	11.450605	2.215268	0.038664	27.241711	0.095019	0.000000	-0.328474	-0.302254	2.478151	-0.610008	-0.401998	2.633035	-0.539649	-0.734901	2.633035	-0.375412	-0.734901	2.168382	-0.305021	-0.616357	2.013498	-0.187690	-0.468192	1.858613	-2.346254	-3.419161	13.782731	0.000000	0.000000	3.745088	0.742365	-4.250831	-12.876730	0.640628	204.514576	0.450120	30.523652	-51.462632	-14.118167	-21.259400	-21.948405	60.224183	49.301852	89.209111	-3.766858	26.916795
4.610169	-0.421509	0.480817	82.658046	0.346924	1.002095	0.520699	-7.167613	-2.074490	25.444810	0.577275	0.010075	16.629779	-16.158297	0.000000	-6.345851	-2.221750	11.340959	2.221785	0.038777	27.508070	0.260997	0.000000	-0.334438	-0.307108	2.502381	-0.621084	-0.408453	2.658780	-0.549447	-0.746701	2.658780	-0.382229	-0.746701	2.189583	-0.310559	-0.626254	2.033185	-0.191098	-0.475710	1.876786	-2.388854	-3.474063	13.917493	0.000000	0.000000	3.635085	0.748229	-4.560309	-12.988878	0.765512	203.489575	0.441120	28.532694	-48.705114	-17.357917	-21.403729	-21.797690	60.317507	49.166357	89.179964	-3.446359	27.184416
4.627119	-0.405604	0.664872	82.611296	0.346866	1.002032	0.519938	-7.378560	-2.083298	25.360824	0.534798	0.009334	16.825101	-16.052843	0.000000	-6.585737	-2.206771	11.218888	2.226200	0.038855	27.778145	0.526186	0.000000	-0.340166	-0.309640	2.505409	-0.631722	-0.411821	2.661997	-0.558859	-0.752859	2.661997	-0.388776	-0.752859	2.192233	-0.315878	-0.631418	2.035645	-0.194371	-0.479632	1.879057	-2.429772	-3.502710	13.934332	0.000000	0.000000	3.513603	0.682486	-4.766908	-13.107058	0.882144	202.795633	0.434024	26.535533	-46.002945	-19.890204	-21.518538	-21.697692	59.995051	49.082892	89.169771	-2.295258	27.426087
4.644068	-0.387322	0.825654	82.641364	0.346670	1.001956	0.519313	-7.560396	-2.074803	25.184992	0.499904	0.008725	17.103586	-15.905737	0.000000	-6.781379	-2.201184	11.149970	2.232162	0.038959	28.045638	0.789941	0.000000	-0.347828	-0.309774	2.492389	-0.645952	-0.411999	2.648163	-0.571447	-0.753184	2.648163	-0.397533	-0.753184	2.180840	-0.322993	-0.631691	2.025066	-0.198749	-0.479840	1.869292	-2.484503	-3.504223	13.861918	0.000000	0.000000	3.411006	0.574628	-4.893665	-13.220491	0.984592	202.416674	0.430966	24.358852	-43.464661	-21.952680	-21.556784	-21.588044	59.551464	48.974289	89.158124	-0.610727	27.757058
4.661017	-0.371863	0.973235	82.711908	0.346415	1.001879	0.518819	-7.722589	-2.058104	25.003558	0.471517	0.008230	17.424023	-15.784275	0.000000	-6.945476	-2.199871	10.945372	2.246488	0.039209	28.329118	1.255361	0.000000	-0.357765	-0.309286	2.471035	-0.664405	-0.411350	2.625475	-0.587772	-0.751997	2.625475	-0.408889	-0.751997	2.162156	-0.332220	-0.630695	2.007716	-0.204427	-0.479084	1.853276	-2.555477	-3.498702	13.743155	0.000000	0.000000	3.322031	0.447402	-4.976689	-13.315911	1.098026	202.377016	0.427986	22.427528	-40.991116	-23.327030	-21.583966	-21.463924	58.828672	48.851686	89.144623	1.672958	28.267921
4.677966	-0.356281	1.114284	82.834199	0.346097	1.001806	0.518402	-7.879716	-2.031395	24.818165	0.448353	0.007825	17.763503	-15.676772	0.000000	-7.086906	-2.205836	10.652212	2.271264	0.039641	28.615318	1.878146	0.000000	-0.368582	-0.308333	2.440212	-0.684493	-0.410083	2.592725	-0.605543	-0.749681	2.592725	-0.421252	-0.749681	2.135186	-0.342265	-0.628753	1.982672	-0.210608	-0.477608	1.830159	-2.632742	-3.487924	13.571728	0.000000	0.000000	3.226141	0.333711	-5.040494	-13.401407	1.218031	202.625664	0.425348	20.663382	-38.697428	-24.209155	-21.644608	-21.322689	57.812859	48.736535	89.129635	4.412503	28.999950
4.694915	-0.339761	1.245788	82.998244	0.345714	1.001734	0.518070	-8.028753	-1.996965	24.635309	0.428263	0.007475	18.086992	-15.594439	0.000000	-7.209282	-2.216695	10.381252	2.293526	0.040030	28.868998	2.492253	0.000000	-0.379972	-0.306386	2.403983	-0.705645	-0.407493	2.554232	-0.624255	-0.744946	2.554232	-0.434270	-0.744946	2.103485	-0.352842	-0.624782	1.953236	-0.217116	-0.474592	1.802987	-2.714099	-3.465897	13.370232	0.000000	0.000000	3.157914	0.235580	-5.082380	-13.471483	1.325861	202.867554	0.424367	19.133425	-36.686560	-24.921770	-21.719846	-21.166546	56.653112	48.633660	89.113660	7.334850	29.872263
4.711864	-0.334381	1.360498	83.189875	0.345302	1.001656	0.517827	-8.159760	-1.967976	24.454798	0.411114	0.007175	18.369391	-15.531764	0.000000	-7.301922	-2.220124	10.035650	2.316577	0.040432	29.100395	3.196201	0.000000	-0.391345	-0.305232	2.368213	-0.726767	-0.405958	2.516227	-0.642941	-0.742141	2.516227	-0.447268	-0.742141	2.072187	-0.363403	-0.622429	1.924173	-0.223615	-0.472804	1.776160	-2.795340	-3.452843	13.171292	0.000000	0.000000	3.170532	0.125854	-5.137614	-13.532029	1.437517	203.219311	0.425417	17.954870	-35.022257	-25.183314	-21.804810	-21.012657	55.410342	48.552212	89.097726	10.295074	30.872720
4.728814	-0.329848	1.459450	83.402140	0.344915	1.001600	0.517637	-8.278186	-1.932760	24.298971	0.395891	0.006910	18.609004	-15.506045	0.000000	-7.377994	-2.227680	9.814313	2.326431	0.040604	29.269697	3.732698	0.000000	-0.401577	-0.304931	2.328499	-0.745768	-0.405558	2.474030	-0.659750	-0.741409	2.474030	-0.458962	-0.741409	2.037436	-0.372904	-0.621815	1.891905	-0.229461	-0.472338	1.746374	-2.868422	-3.449439	12.950411	0.000000	0.000000	3.228788	0.015405	-5.224634	-13.550339	1.553565	203.737097	0.421630	17.064669	-33.492741	-25.161332	-21.888495	-20.867092	54.277922	48.458210	89.082879	12.874763	31.770153
4.745763	-0.331157	1.544635	83.602452	0.344562	1.001539	0.517487	-8.382788	-1.905325	24.112644	0.383888	0.006700	18.826869	-15.395234	0.000000	-7.437098	-2.228730	9.548618	2.334836	0.040751	29.413125	4.284766	0.000000	-0.411318	-0.305317	2.294734	-0.763858	-0.406072	2.438155	-0.675754	-0.742348	2.438155	-0.470095	-0.742348	2.007893	-0.381950	-0.622602	1.864472	-0.235027	-0.472936	1.721051	-2.938002	-3.453807	12.762624	0.000000	0.000000	3.379197	-0.110686	-5.342195	-13.575888	1.653923	204.391831	0.420024	16.598481	-32.624571	-24.516761	-21.968489	-20.730912	53.258794	48.344522	89.069056	15.114030	32.520422
4.762712	-0.352374	1.595800	83.756234	0.344309	1.001462	0.517411	-8.445847	-1.899053	24.019439	0.374495	0.006536	18.935968	-15.378337	0.000000	-7.461125	-2.208151	9.281592	2.335851	0.040768	29.500589	4.739601	0.000000	-0.417818	-0.307897	2.270833	-0.775929	-0.409503	2.412760	-0.686433	-0.748621	2.412760	-0.477524	-0.748621	1.986979	-0.387986	-0.627863	1.845052	-0.238741	-0.476932	1.703125	-2.984430	-3.482991	12.629694	0.000000	0.000000	3.621536	-0.294589	-5.476001	-13.583210	1.712934	204.982291	0.417496	15.941723	-32.235666	-24.171078	-21.980415	-20.621907	52.612793	48.179791	89.056933	16.711445	32.916353
4.779661	-0.387739	1.621093	83.847758	0.344189	1.001360	0.517384	-8.479726	-1.912385	24.065218	0.361918	0.006317	18.930445	-15.479843	0.000000	-7.467447	-2.171135	9.015809	2.322137	0.040529	29.534732	5.099257	0.000000	-0.421534	-0.312361	2.260356	-0.782831	-0.415440	2.401628	-0.692538	-0.759474	2.401628	-0.481771	-0.759474	1.977811	-0.391436	-0.636966	1.836539	-0.240865	-0.483847	1.695267	-3.010975	-3.533489	12.571420	0.000000	0.000000	3.945313	-0.483979	-5.588676	-13.608798	1.730619	205.419127	0.410670	15.119068	-32.368371	-24.018875	-21.936240	-20.531689	52.221556	47.975878	89.057373	17.945655	33.124802
